<?xml version="1.0" standalone="no"?>
<!DOCTYPE svg PUBLIC "-//W3C//DTD SVG 20010904//EN"
 "http://www.w3.org/TR/2001/REC-SVG-20010904/DTD/svg10.dtd">
<svg version="1.0" xmlns="http://www.w3.org/2000/svg"
 width="468pt" height="128pt" viewBox="0 0 468 128"
 preserveAspectRatio="xMidYMid meet">
<metadata>
Created by POTRACE VERSION, written by Peter Selinger 2001-2007
</metadata>
<g transform="translate(0,128) scale(0.046800,-0.046800)"
fill="#000000" stroke="none">
<path d="M7873 2516 c-12 -13 -24 -33 -28 -45 -3 -12 -10 -21 -15 -21 -4 0 -6
-10 -2 -22 4 -16 2 -19 -8 -13 -10 6 -12 4 -7 -8 3 -9 2 -17 -2 -19 -4 -2 -10
-22 -14 -45 -4 -32 -2 -43 8 -43 7 0 15 -7 19 -15 3 -8 12 -15 21 -15 9 0 18
6 21 14 3 8 7 22 8 31 1 9 10 25 19 36 9 10 17 24 17 29 0 6 6 10 14 10 8 0
17 7 20 16 3 9 6 26 6 38 0 12 5 27 12 34 10 10 8 16 -7 31 -11 10 -29 22 -41
25 -14 4 -27 -1 -41 -18z"/>
<path d="M5455 2154 c-11 -3 -32 -10 -47 -15 -17 -7 -32 -25 -43 -52 -15 -37
-15 -41 -1 -49 9 -5 16 -16 16 -23 0 -8 8 -15 18 -15 10 0 22 -4 28 -10 5 -5
68 -25 139 -44 72 -19 146 -42 165 -52 19 -9 39 -23 43 -31 5 -7 12 -11 17 -8
5 3 16 -8 25 -24 8 -16 18 -47 22 -68 4 -21 7 -66 7 -100 0 -39 -7 -70 -17
-87 -9 -14 -17 -35 -17 -46 0 -12 -5 -31 -11 -43 -6 -12 -25 -37 -42 -54 -17
-18 -34 -33 -39 -33 -4 0 -32 -25 -63 -55 -30 -30 -55 -61 -55 -69 0 -8 -10
-16 -23 -20 -13 -3 -36 -28 -57 -63 -19 -31 -43 -64 -52 -72 -9 -8 -15 -18
-12 -23 3 -4 1 -8 -3 -8 -5 0 -10 -10 -10 -22 -1 -13 -10 -28 -20 -36 -17 -12
-16 -13 3 -18 14 -4 20 -12 18 -22 -2 -10 0 -23 5 -31 7 -11 15 -9 44 11 20
13 61 48 92 76 31 29 60 52 65 52 6 0 10 6 10 13 0 6 20 32 43 57 24 25 56 63
72 85 17 22 32 42 35 45 3 3 16 22 30 42 14 21 28 38 32 38 4 0 18 10 31 23
13 12 32 28 43 34 10 7 35 21 54 31 19 10 52 28 73 40 20 12 52 30 70 40 17
10 58 28 89 40 37 14 59 18 64 11 3 -6 3 -26 -1 -46 -3 -19 -14 -50 -22 -69
-9 -19 -20 -34 -24 -34 -4 0 -9 -10 -13 -22 -3 -13 -19 -37 -36 -55 -16 -18
-30 -35 -30 -38 0 -4 -15 -23 -32 -42 -18 -20 -45 -48 -59 -62 -15 -14 -35
-33 -45 -42 -11 -9 -26 -25 -35 -36 -8 -10 -18 -27 -22 -37 -4 -10 -4 -35 -1
-55 6 -37 7 -38 49 -37 24 0 42 4 39 8 -3 4 1 6 8 3 7 -3 33 14 58 37 25 24
87 64 138 91 52 26 100 47 107 47 7 0 18 6 24 14 7 8 21 12 34 8 12 -3 19 -1
15 3 -4 4 9 16 29 26 20 10 51 24 70 30 18 6 33 14 33 18 0 4 17 14 38 23 20
9 48 19 62 23 14 3 20 3 14 -2 -6 -4 -14 -18 -18 -29 -4 -12 -18 -34 -33 -50
-14 -15 -36 -48 -50 -73 -16 -31 -22 -54 -18 -71 4 -14 12 -28 18 -32 7 -4 24
-8 39 -8 14 0 28 -5 30 -11 3 -8 9 -7 19 3 8 9 30 19 49 23 18 4 47 16 64 26
17 10 40 19 51 19 11 0 28 7 38 15 11 7 25 11 33 8 8 -3 23 5 34 18 10 13 19
21 20 17 0 -4 16 0 35 8 19 8 35 11 35 7 0 -5 4 -3 8 4 4 6 29 21 55 32 26 11
47 16 47 11 0 -6 -4 -10 -9 -10 -5 0 -20 -19 -33 -43 -24 -42 -24 -43 -6 -85
14 -31 26 -43 46 -47 15 -4 35 -10 44 -15 11 -6 36 -3 75 9 32 10 72 22 90 25
18 4 58 21 89 37 32 16 64 29 71 29 8 0 27 7 44 15 28 15 30 15 57 -13 15 -16
43 -36 62 -45 27 -12 56 -15 120 -11 47 3 99 9 116 15 17 5 46 11 64 14 18 2
62 14 98 27 57 20 65 21 76 7 6 -9 25 -23 43 -32 17 -9 55 -19 85 -22 29 -3
97 0 151 8 l98 13 -7 -29 c-4 -21 1 -38 20 -67 15 -23 37 -42 52 -46 15 -4 65
-4 113 -1 47 4 118 16 156 28 39 12 74 25 80 30 5 5 17 9 28 9 10 0 50 16 89
35 38 19 74 33 79 30 5 -4 9 -2 9 2 0 5 15 16 33 24 17 9 66 34 107 56 l75 41
110 -3 c61 -1 112 -3 115 -4 3 -1 -6 -11 -19 -21 -13 -11 -21 -20 -18 -20 2 0
-11 -17 -30 -37 -19 -21 -41 -51 -50 -67 -8 -16 -18 -49 -22 -74 -6 -41 -4
-46 34 -86 37 -39 41 -41 100 -41 47 0 67 5 88 22 28 21 28 22 8 33 -12 6 -21
16 -21 21 0 6 7 8 16 5 8 -3 12 -2 9 3 -3 5 -1 13 5 16 8 5 7 11 -1 21 -6 8
-20 14 -30 14 -11 0 -19 -4 -19 -8 0 -4 -12 -7 -27 -6 -16 1 -31 3 -35 3 -5 1
-8 7 -8 14 0 6 16 30 35 51 19 22 35 43 35 47 0 4 15 16 33 28 17 11 50 34 71
51 21 16 36 30 31 30 -4 0 -2 7 6 16 7 9 13 24 14 35 1 10 -3 19 -8 19 -5 0
-6 11 -3 24 3 14 2 27 -4 31 -5 3 -89 7 -186 8 -131 2 -179 6 -182 15 -2 6
-10 12 -17 12 -8 0 -29 -13 -47 -28 -18 -15 -70 -49 -115 -75 -46 -26 -87 -47
-93 -47 -5 0 -10 -3 -10 -8 0 -4 -17 -12 -37 -19 -21 -6 -54 -18 -73 -26 -19
-9 -39 -16 -45 -17 -5 -1 -26 -8 -45 -17 -19 -8 -66 -21 -103 -29 -38 -8 -88
-14 -113 -14 -24 0 -44 3 -44 8 0 4 17 22 37 40 21 18 56 42 78 52 22 9 78 32
125 49 47 18 92 36 100 41 8 5 40 21 70 37 30 15 61 34 68 41 8 6 23 17 34 23
18 10 20 17 14 62 -4 29 -11 56 -16 61 -5 5 -34 1 -67 -10 -32 -10 -76 -26
-98 -37 -22 -10 -47 -23 -55 -28 -8 -5 -31 -17 -50 -27 -19 -9 -48 -26 -65
-36 -16 -11 -52 -34 -80 -52 -27 -17 -77 -39 -110 -47 -33 -9 -94 -23 -135
-33 -41 -9 -105 -18 -142 -20 -38 -2 -68 0 -68 4 0 4 20 15 45 25 25 11 45 23
45 27 0 5 14 11 30 15 17 4 30 10 30 15 0 5 10 12 22 16 12 3 26 10 32 15 6 5
22 19 36 30 14 12 42 29 62 39 21 9 35 20 31 23 -3 4 0 7 9 7 8 0 24 8 36 18
11 9 29 24 39 32 10 8 41 34 68 57 28 23 71 61 96 85 25 23 71 72 103 108 31
36 56 71 56 77 0 7 4 13 9 13 5 0 9 17 9 38 0 20 -4 56 -10 80 -6 25 -16 42
-25 42 -8 0 -39 -11 -68 -25 -30 -13 -66 -27 -80 -31 -14 -3 -25 -10 -25 -15
0 -5 -22 -18 -50 -30 -27 -12 -50 -25 -50 -30 0 -4 -17 -16 -37 -25 -21 -10
-42 -24 -46 -31 -4 -7 -16 -13 -25 -13 -9 -1 -35 -19 -57 -40 -22 -22 -44 -40
-50 -40 -6 0 -51 -37 -100 -82 -49 -46 -110 -104 -135 -129 -25 -25 -54 -57
-65 -71 -11 -14 -26 -36 -34 -49 -8 -13 -23 -41 -34 -61 -14 -26 -29 -39 -51
-44 -17 -4 -37 -10 -46 -14 -8 -5 -55 -15 -105 -24 -49 -8 -110 -16 -135 -17
-25 0 -48 0 -52 1 -5 2 -12 4 -18 5 -5 1 -19 3 -30 4 -11 0 -20 6 -20 13 0 6
3 9 6 5 3 -3 14 2 25 11 11 9 57 37 102 62 46 25 105 59 133 77 27 18 54 37
61 43 7 5 24 15 38 22 14 6 25 15 25 20 0 4 7 8 16 8 9 0 32 18 51 40 20 22
41 40 48 40 7 0 56 42 109 94 53 52 96 99 96 104 0 6 11 23 24 39 14 17 25 46
28 75 3 26 3 50 -1 53 -3 4 -6 10 -6 13 -1 4 -6 17 -13 30 -7 12 -19 22 -26
22 -7 0 -53 -21 -102 -47 -49 -25 -93 -52 -97 -60 -4 -7 -14 -13 -21 -13 -7 0
-21 -9 -31 -20 -10 -11 -24 -20 -31 -20 -7 0 -17 -6 -21 -13 -4 -7 -42 -38
-83 -69 -41 -31 -88 -68 -104 -82 -16 -14 -34 -26 -39 -26 -6 0 -8 -3 -4 -6 3
-3 -39 -51 -94 -105 -54 -55 -99 -104 -99 -108 0 -5 -7 -14 -16 -22 -8 -7 -24
-30 -35 -51 -13 -25 -26 -38 -39 -38 -11 0 -20 -4 -20 -8 0 -5 -30 -21 -67
-37 -38 -15 -86 -35 -108 -45 -22 -10 -69 -25 -104 -34 -35 -9 -66 -14 -69
-11 -3 2 22 31 54 63 32 33 71 73 86 89 15 18 22 35 17 40 -4 4 -10 26 -12 48
-1 22 -7 40 -12 41 -6 0 -27 -6 -47 -14 -21 -8 -38 -19 -38 -23 0 -4 -17 -11
-37 -15 -21 -4 -39 -5 -41 -3 -1 2 -6 -1 -10 -7 -4 -6 -28 -21 -54 -34 -27
-13 -51 -21 -54 -17 -4 4 -21 -2 -39 -13 -17 -11 -74 -35 -126 -55 -52 -20
-105 -41 -119 -47 -14 -7 -28 -14 -32 -16 -5 -2 -8 2 -8 9 0 7 49 61 109 120
60 59 118 120 127 135 11 16 17 41 15 63 -1 20 -8 42 -15 49 -10 11 -18 11
-42 0 -16 -7 -31 -15 -34 -18 -3 -3 -48 -27 -101 -53 -52 -26 -102 -47 -111
-47 -8 0 -21 -6 -27 -14 -7 -8 -25 -18 -41 -21 -16 -3 -34 -13 -41 -21 -6 -8
-17 -14 -25 -14 -7 0 -20 -7 -28 -16 -9 -8 -16 -12 -16 -9 0 4 -16 -3 -36 -14
-20 -12 -43 -23 -53 -24 -9 -1 -34 -13 -55 -25 -21 -12 -42 -20 -47 -17 -5 4
-9 -1 -9 -9 0 -8 -8 -14 -17 -14 -10 0 -27 -3 -38 -7 -16 -5 -17 -5 -5 4 8 6
15 14 15 18 0 4 15 33 33 64 17 31 32 63 32 71 0 8 4 18 9 23 4 6 16 40 25 77
9 37 16 76 16 88 0 11 -3 20 -7 20 -5 0 -9 17 -10 37 -1 20 -7 39 -14 43 -6 4
-21 5 -33 2 -11 -3 -25 -8 -31 -12 -5 -4 -26 -11 -45 -15 -19 -4 -40 -11 -46
-17 -7 -5 -16 -8 -20 -7 -5 1 -28 -6 -51 -16 -24 -10 -43 -22 -43 -27 0 -4 -7
-8 -15 -8 -8 0 -25 -6 -38 -12 -12 -7 -35 -24 -50 -38 -22 -19 -30 -22 -36
-11 -7 10 -9 9 -14 -3 -4 -9 -12 -16 -19 -16 -9 0 -12 12 -10 38 1 20 3 62 4
93 0 37 -9 86 -27 140 -15 47 -37 95 -49 109 -12 14 -43 42 -69 63 -33 27 -47
46 -47 63 0 17 -12 32 -42 51 -37 25 -51 28 -137 30 -53 1 -105 -1 -116 -3z
m2885 -320 c0 -3 -11 -15 -25 -26 -14 -11 -25 -26 -25 -34 0 -8 -6 -14 -14
-14 -8 0 -36 -22 -62 -48 -27 -26 -64 -54 -81 -61 -18 -7 -33 -17 -33 -22 0
-5 -6 -9 -13 -9 -8 0 -23 -10 -35 -23 -12 -13 -42 -33 -66 -45 -24 -12 -49
-29 -56 -37 -7 -8 -17 -15 -23 -15 -6 0 24 34 68 75 43 41 80 75 82 75 2 0 11
7 21 15 9 9 30 26 45 39 15 13 52 39 82 57 30 18 55 37 55 41 0 4 6 8 14 8 7
0 19 7 26 15 7 8 19 15 26 15 8 0 14 -3 14 -6z m574 -1 c4 -4 -35 -47 -86 -95
-50 -48 -95 -88 -98 -88 -3 0 -25 -18 -48 -40 -22 -22 -45 -40 -50 -40 -5 0
-19 -11 -32 -25 -13 -14 -29 -25 -36 -25 -7 0 -33 -16 -58 -35 -26 -19 -53
-35 -62 -35 -9 0 -30 -10 -47 -22 -17 -12 -38 -23 -47 -25 -10 -1 -7 5 9 18
13 10 20 19 16 19 -4 0 6 12 22 28 17 15 63 56 103 92 40 36 110 91 156 122
46 32 109 72 139 90 31 18 65 37 76 43 10 5 19 13 19 17 0 5 4 8 8 8 5 0 12
-3 16 -7z"/>
<path d="M1980 1870 c-30 -27 -61 -49 -69 -50 -8 0 -11 -3 -8 -6 4 -4 -27 -40
-68 -81 -41 -40 -75 -79 -75 -85 0 -6 -7 -18 -15 -27 -8 -9 -32 -36 -55 -60
-22 -24 -40 -47 -40 -52 0 -5 -4 -9 -10 -9 -5 0 -10 -8 -10 -17 0 -10 -21 -40
-45 -68 -25 -27 -45 -53 -45 -56 0 -3 -10 -17 -21 -30 -12 -13 -38 -48 -58
-77 -20 -30 -43 -66 -51 -81 -9 -15 -32 -50 -53 -78 -20 -28 -43 -64 -49 -79
-7 -16 -23 -43 -36 -60 -20 -27 -30 -31 -73 -33 -37 -1 -49 2 -50 14 -1 8 -2
20 -3 25 0 6 -6 14 -11 18 -6 4 -18 19 -28 35 -10 15 -15 27 -11 27 4 0 -5 9
-19 20 -14 11 -29 29 -32 40 -4 11 -10 18 -15 15 -5 -3 -21 6 -37 20 -22 19
-25 27 -15 33 9 6 0 11 -28 15 -23 3 -44 8 -48 12 -3 3 20 83 52 177 32 95 53
174 48 177 -5 3 -15 23 -21 44 -7 20 -18 37 -26 37 -7 0 -19 -7 -26 -16 -7 -9
-14 -21 -16 -28 -1 -6 -5 -27 -8 -46 -3 -19 -10 -44 -15 -55 -5 -11 -21 -54
-35 -95 -15 -41 -30 -85 -36 -97 -5 -13 -14 -35 -21 -49 -7 -14 -26 -31 -43
-39 -16 -7 -48 -31 -71 -54 -34 -34 -43 -51 -54 -103 -6 -35 -13 -70 -14 -78
0 -8 -8 -18 -16 -22 -12 -5 -12 -7 3 -7 9 -1 17 -8 17 -16 0 -8 -9 -24 -20
-35 -11 -11 -20 -26 -20 -34 0 -7 -7 -19 -15 -26 -8 -7 -12 -16 -9 -21 3 -5
-2 -12 -10 -15 -9 -3 -29 -30 -46 -59 -17 -30 -39 -57 -49 -60 -10 -3 -23 -15
-29 -28 -5 -12 -28 -43 -50 -69 -22 -26 -42 -44 -46 -41 -3 4 -6 0 -6 -8 0 -8
-16 -31 -35 -52 -19 -21 -33 -43 -30 -48 4 -5 -1 -9 -9 -9 -9 0 -16 -5 -16
-10 0 -6 -9 -23 -20 -38 -10 -15 -22 -39 -26 -54 -5 -21 -2 -28 9 -28 8 0 17
-7 21 -15 3 -8 12 -15 20 -15 7 0 30 19 50 43 20 23 45 51 55 62 10 11 26 34
35 51 8 18 29 43 46 58 18 14 28 26 25 26 -4 0 9 19 29 43 19 23 45 51 56 63
11 12 20 25 20 30 0 5 12 20 25 33 14 13 25 27 25 33 0 5 4 7 9 4 5 -3 12 5
15 19 4 14 11 25 17 25 6 0 8 4 4 10 -3 5 3 18 14 29 16 16 26 18 43 12 13 -5
22 -14 20 -20 -1 -7 7 -9 22 -5 13 3 26 1 30 -4 3 -5 47 -10 98 -11 51 -2 119
-3 151 -4 31 -1 59 3 61 8 3 6 5 5 5 -2 1 -6 9 -9 20 -6 15 4 19 -2 23 -27 3
-17 2 -33 -2 -35 -4 -2 -5 -30 -2 -62 3 -33 10 -61 18 -66 7 -4 20 -15 29 -23
15 -15 18 -15 36 2 11 10 17 24 14 32 -3 8 -1 20 4 26 5 6 10 25 12 41 2 17 6
35 10 40 3 6 9 21 13 35 3 14 18 39 34 57 18 21 39 33 62 36 19 3 48 10 63 16
16 6 33 8 39 5 5 -3 7 -15 4 -26 -3 -15 6 -31 33 -57 21 -20 41 -43 44 -51 5
-10 9 -11 13 -3 3 8 15 9 34 3 17 -5 56 -7 87 -5 32 1 75 6 96 10 20 4 40 11
43 16 3 5 18 9 33 9 15 0 31 3 35 7 4 4 19 8 34 9 15 1 50 10 77 21 28 11 52
20 55 21 3 0 18 5 33 11 16 6 34 11 41 11 7 0 16 3 20 7 3 4 12 8 19 9 7 1 41
11 76 23 35 11 65 21 67 21 1 0 -19 -22 -45 -49 -36 -38 -48 -58 -49 -83 -1
-18 1 -41 4 -50 3 -9 18 -19 33 -23 23 -5 51 5 132 48 57 29 115 60 129 68 14
8 33 20 43 28 9 8 17 10 17 6 0 -4 8 -1 18 7 9 9 52 32 94 52 43 20 82 36 88
36 7 0 -2 -12 -19 -26 -17 -14 -31 -32 -31 -40 0 -8 -4 -14 -10 -14 -5 0 -10
-8 -10 -18 0 -10 -4 -22 -9 -28 -4 -5 -11 -22 -15 -37 -6 -24 -3 -30 14 -34
15 -4 20 -11 17 -24 -3 -11 -2 -19 1 -19 4 0 25 5 47 12 22 6 43 11 47 10 4
-1 33 14 65 32 32 19 90 50 128 70 39 20 74 36 78 36 5 0 23 11 40 24 18 13
70 44 117 67 47 24 91 49 99 57 10 10 25 12 50 6 20 -4 44 -7 54 -6 9 0 17 -4
17 -9 0 -6 25 -7 63 -4 34 3 56 2 48 -2 -8 -3 -25 -17 -38 -30 -16 -16 -25
-36 -26 -63 -1 -22 4 -45 10 -51 6 -6 26 -14 45 -18 18 -4 51 -3 73 2 22 5 49
10 60 13 11 2 29 8 40 13 11 6 54 24 95 40 41 16 93 39 115 50 21 12 47 21 57
21 10 0 18 -7 18 -15 0 -8 6 -25 13 -38 6 -12 16 -25 21 -29 6 -4 17 -3 26 2
11 6 21 5 27 -1 6 -6 32 -9 60 -6 26 2 58 7 71 11 12 3 32 8 45 11 12 2 43 10
70 17 26 6 47 15 47 19 0 4 9 9 20 12 11 3 20 3 20 0 0 -3 -20 -29 -44 -57
-24 -28 -90 -98 -147 -156 -57 -58 -151 -148 -209 -200 -57 -52 -146 -137
-197 -188 -50 -50 -97 -92 -103 -92 -5 0 -10 -4 -10 -10 0 -5 -7 -10 -15 -10
-8 0 -15 -6 -15 -12 0 -9 -4 -8 -10 2 -6 10 -10 11 -10 3 0 -7 -3 -12 -7 -10
-5 1 -10 -2 -12 -8 -1 -5 -9 -22 -17 -37 -8 -15 -14 -30 -14 -33 0 -3 5 -3 10
0 6 3 10 1 10 -5 0 -6 4 -9 9 -6 5 4 12 0 15 -6 3 -9 10 -7 23 8 11 12 30 25
42 29 16 5 21 4 17 -4 -4 -6 -4 -11 1 -11 4 0 20 8 34 18 15 9 58 42 95 73 38
31 79 62 92 70 12 8 22 19 22 24 0 6 23 31 51 55 28 25 121 113 207 195 85 83
162 159 171 169 9 11 37 41 62 68 26 27 57 64 70 83 13 19 27 35 32 35 4 0 7
7 7 15 0 8 17 31 37 51 20 20 37 44 38 53 0 9 4 22 8 28 4 6 3 23 -3 38 -5 14
-10 37 -10 50 0 12 -8 26 -17 29 -9 4 -19 3 -22 -2 -3 -4 -24 -16 -46 -27 -22
-10 -45 -18 -52 -18 -7 0 -10 -3 -8 -7 3 -4 -3 -14 -13 -22 -9 -8 -45 -27 -79
-43 -35 -16 -63 -33 -63 -38 0 -5 -6 -7 -12 -4 -7 2 -37 -5 -65 -15 -29 -10
-64 -18 -79 -18 -25 0 -24 2 23 48 35 34 49 55 49 74 -1 14 -4 24 -7 22 -4 -2
-9 10 -13 26 -3 17 -12 30 -21 30 -8 0 -43 -15 -77 -33 -35 -18 -94 -47 -133
-64 -38 -17 -97 -43 -130 -58 -50 -22 -57 -24 -43 -8 15 16 16 25 6 54 -6 19
-13 40 -15 48 -2 10 -12 11 -36 5 -17 -4 -54 -8 -82 -8 -27 -1 -53 -4 -56 -9
-3 -4 -34 -7 -70 -7 -35 1 -76 1 -91 0 -23 0 -28 5 -34 35 -3 19 -12 39 -19
45 -10 8 -20 8 -37 -2 -12 -7 -33 -23 -44 -35 -12 -12 -48 -36 -80 -54 -33
-18 -83 -47 -112 -66 -28 -19 -57 -31 -62 -28 -6 3 -10 2 -10 -4 0 -5 -9 -13
-20 -16 -11 -4 -44 -22 -73 -41 -28 -19 -59 -34 -67 -34 -9 0 -22 -6 -30 -12
-8 -8 -7 -3 3 14 9 15 17 34 17 43 0 8 5 15 10 15 7 0 9 16 6 39 -2 21 -12 50
-21 65 -10 14 -18 26 -19 26 0 0 -36 -13 -78 -28 -43 -15 -86 -35 -97 -44 -11
-9 -21 -14 -23 -12 -3 2 -31 -9 -64 -25 -45 -22 -60 -25 -62 -15 -2 8 -7 14
-12 14 -4 0 -11 18 -15 41 l-7 41 -41 -6 c-23 -4 -46 -10 -52 -15 -5 -4 -41
-16 -80 -26 -38 -10 -83 -25 -100 -35 -16 -10 -48 -20 -70 -24 -22 -4 -45 -8
-51 -9 -7 -2 -19 -9 -28 -16 -9 -7 -27 -11 -41 -9 -14 3 -25 1 -25 -3 0 -5 -3
-8 -7 -7 -5 1 -17 -3 -28 -8 -11 -6 -54 -19 -95 -28 -41 -9 -97 -22 -125 -28
-27 -7 -55 -16 -62 -20 -6 -5 -14 -4 -18 2 -4 7 -11 8 -18 1 -7 -5 -23 -10
-37 -11 -14 -1 -29 -1 -35 0 -5 2 -14 4 -20 5 -5 2 -16 3 -22 4 -7 0 -13 10
-13 20 0 11 7 26 15 35 8 8 40 20 70 27 30 7 55 16 55 21 0 4 7 8 15 8 8 0 15
5 15 10 0 6 9 10 20 10 11 0 20 4 20 9 0 5 11 12 24 15 13 3 42 24 65 47 40
38 41 42 27 58 -9 10 -16 23 -16 29 0 7 -4 12 -10 12 -5 0 -10 7 -10 16 0 8
-16 22 -35 30 -20 8 -59 13 -90 12 -30 -1 -55 -6 -55 -10 0 -4 -6 -8 -14 -8
-7 0 -32 -18 -55 -40 -22 -22 -46 -40 -51 -40 -6 0 -10 -5 -10 -10 0 -6 -10
-26 -22 -45 -13 -19 -31 -35 -41 -35 -10 0 -15 -4 -12 -10 3 -6 -5 -10 -19
-10 -13 0 -37 -5 -51 -10 l-27 -10 21 26 c12 15 21 31 21 35 0 5 17 33 37 61
21 29 41 55 45 56 5 2 6 8 2 13 -3 5 -1 9 5 9 5 0 16 11 23 24 7 14 35 57 62
96 26 39 73 101 102 138 30 37 69 85 87 106 17 22 52 62 77 89 25 27 68 72 95
99 28 27 67 59 88 71 20 11 37 27 37 34 0 7 -5 33 -12 58 -9 35 -17 45 -33 45
-11 0 -45 -22 -75 -50z m-1043 -802 c7 -6 10 -14 7 -19 -3 -5 2 -9 12 -9 9 0
39 -23 66 -50 28 -28 48 -58 46 -67 -2 -9 -12 -18 -23 -20 -11 -2 -56 -4 -100
-5 -44 -1 -104 1 -133 4 -29 3 -56 8 -59 12 -4 4 2 21 12 39 10 18 25 38 32
45 7 7 13 20 13 28 0 9 8 26 18 39 14 21 23 24 57 19 22 -3 46 -10 52 -16z"/>
</g>
</svg>
